<?xml version="1.0" encoding="utf-8"?>
<!-- Generator: Adobe Illustrator 25.3.1, SVG Export Plug-In . SVG Version: 6.00 Build 0)  -->
<svg version="1.1" id="Layer_1" xmlns="http://www.w3.org/2000/svg" xmlns:xlink="http://www.w3.org/1999/xlink" x="0px" y="0px"
	 viewBox="0 0 240 242" style="enable-background:new 0 0 240 242;" xml:space="preserve">
<style type="text/css">
	.st0{fill-rule:evenodd;clip-rule:evenodd;fill:#B3B3B3;}
	.st1{fill:#B3B3B3;}
</style>
<g>
	<path class="st0" d="M119.98,23.83c-55.22,0-100,44.77-100,100c0,44.18,28.65,81.67,68.39,94.89c5,0.93,6.83-2.17,6.83-4.81
		c0-2.38-0.09-10.26-0.14-18.62c-27.82,6.05-33.69-11.8-33.69-11.8c-4.55-11.56-11.1-14.63-11.1-14.63
		c-9.07-6.21,0.68-6.08,0.68-6.08c10.04,0.71,15.33,10.31,15.33,10.31c8.92,15.29,23.39,10.87,29.1,8.31
		c0.9-6.46,3.49-10.88,6.35-13.37c-22.21-2.53-45.56-11.1-45.56-49.42c0-10.92,3.91-19.84,10.3-26.84
		c-1.04-2.52-4.46-12.69,0.97-26.47c0,0,8.4-2.68,27.5,10.26c7.98-2.22,16.54-3.33,25.03-3.37c8.5,0.04,17.06,1.15,25.05,3.37
		C164.12,62.62,172.5,65.3,172.5,65.3c5.44,13.77,2.02,23.94,0.98,26.47c6.41,7,10.29,15.92,10.29,26.84
		c0,38.41-23.39,46.86-45.66,49.34c3.59,3.1,6.78,9.19,6.78,18.52c0,13.38-0.11,24.15-0.11,27.44c0,2.66,1.8,5.78,6.87,4.8
		c39.71-13.24,68.33-50.71,68.33-94.88C219.98,68.61,175.21,23.83,119.98,23.83z"/>
	<path class="st1" d="M57.86,167.41c-0.22,0.5-1.01,0.65-1.72,0.31c-0.73-0.33-1.13-1-0.9-1.5c0.21-0.51,1-0.65,1.72-0.31
		C57.7,166.23,58.11,166.91,57.86,167.41L57.86,167.41z M61.91,171.93c-0.48,0.44-1.41,0.24-2.04-0.47
		c-0.65-0.7-0.78-1.63-0.29-2.08c0.49-0.44,1.39-0.24,2.04,0.46C62.27,170.56,62.4,171.48,61.91,171.93L61.91,171.93z M65.85,177.69
		c-0.61,0.43-1.61,0.03-2.23-0.86c-0.62-0.89-0.62-1.95,0.01-2.38c0.62-0.43,1.61-0.04,2.23,0.84
		C66.48,176.19,66.48,177.26,65.85,177.69L65.85,177.69z M71.25,183.26c-0.55,0.6-1.72,0.44-2.57-0.38
		c-0.87-0.81-1.12-1.95-0.57-2.56c0.56-0.6,1.73-0.43,2.59,0.38C71.57,181.5,71.84,182.65,71.25,183.26L71.25,183.26z M78.71,186.48
		c-0.24,0.79-1.37,1.14-2.5,0.81c-1.13-0.34-1.87-1.26-1.65-2.05c0.24-0.79,1.37-1.16,2.51-0.8
		C78.2,184.78,78.94,185.69,78.71,186.48L78.71,186.48z M86.89,187.08c0.03,0.82-0.93,1.51-2.12,1.52
		c-1.19,0.03-2.16-0.64-2.18-1.45c0-0.83,0.94-1.51,2.13-1.53C85.91,185.6,86.89,186.27,86.89,187.08z M94.5,185.79
		c0.14,0.8-0.68,1.63-1.86,1.85c-1.16,0.22-2.23-0.28-2.38-1.08c-0.14-0.82,0.7-1.65,1.86-1.86
		C93.29,184.49,94.35,184.97,94.5,185.79L94.5,185.79z"/>
</g>
</svg>
